<?xml version="1.0" encoding="iso-8859-1"?>
<!-- Generator: Adobe Illustrator 19.0.0, SVG Export Plug-In . SVG Version: 6.00 Build 0)  -->
<svg version="1.1" id="Capa_1" xmlns="http://www.w3.org/2000/svg" xmlns:xlink="http://www.w3.org/1999/xlink" x="0px" y="0px"
	 viewBox="0 0 480.001 480.001" style="enable-background:new 0 0 480.001 480.001;" xml:space="preserve">
<g>
	<g>
		<path d="M440.001,32.009h-16v-24c0-4.418-3.582-8-8-8s-8,3.582-8,8v24h-64v-24c0-4.418-3.582-8-8-8s-8,3.582-8,8v24h-64v-24
			c0-4.418-3.582-8-8-8s-8,3.582-8,8v24h-64v-24c0-4.418-3.582-8-8-8s-8,3.582-8,8v24h-64v-24c0-4.418-3.582-8-8-8s-8,3.582-8,8v24
			h-16c-22.08,0.026-39.974,17.92-40,40V267.64c-43.437,49.083-42.554,123.111,2.04,171.144c2.22,2.483,4.576,4.841,7.056,7.064
			l0.072,0.072h0.048c48.021,44.617,122.057,45.52,171.152,2.088h227.632c22.08-0.026,39.974-17.92,40-40v-336
			C479.974,49.928,462.081,32.035,440.001,32.009z M204.46,434.157c-43.063,39.841-109.545,39.797-152.556-0.101
			c-2.127-1.91-4.149-3.934-6.056-6.064C3.752,382.491,6.512,311.478,52.013,269.381s116.515-39.337,158.612,6.165
			C252.722,321.047,249.962,392.06,204.46,434.157z M464.001,408.009c0,13.255-10.745,24-24,24h-212.16
			c0.976-1.208,1.832-2.496,2.752-3.736c0.92-1.24,1.712-2.256,2.52-3.424c1.784-2.568,3.448-5.216,5.032-7.912
			c0.464-0.8,0.984-1.528,1.424-2.32c1.973-3.509,3.773-7.107,5.4-10.792c0.416-0.936,0.752-1.904,1.144-2.848
			c1.16-2.784,2.248-5.6,3.2-8.456c0.456-1.344,0.848-2.704,1.248-4.064c0.8-2.568,1.464-5.16,2.064-7.776
			c0.328-1.432,0.648-2.856,0.936-4.304c0.528-2.736,0.952-5.504,1.304-8.288c0.16-1.28,0.368-2.552,0.496-3.84
			c0.392-4.056,0.64-8.136,0.64-12.24c-0.084-70.658-57.342-127.916-128-128c-4.104,0-8.184,0.248-12.24,0.64
			c-1.288,0.128-2.56,0.336-3.848,0.496c-2.776,0.36-5.536,0.8-8.28,1.304c-1.448,0.288-2.88,0.608-4.312,0.936
			c-2.608,0.603-5.187,1.288-7.736,2.056c-1.376,0.408-2.752,0.8-4.112,1.256c-2.808,0.944-5.6,2.016-8.304,3.144
			c-1.008,0.416-2.024,0.8-3.016,1.208c-3.648,1.6-7.2,3.4-10.704,5.36c-0.888,0.496-1.728,1.072-2.608,1.6
			c-2.584,1.536-5.128,3.128-7.608,4.8c-1.224,0.848-2.4,1.76-3.6,2.648c-1.2,0.888-2.456,1.752-3.632,2.712v-124.16h416V408.009z
			 M464.001,112.009h-416v-40c0-13.255,10.745-24,24-24h16v24c0,4.418,3.582,8,8,8s8-3.582,8-8v-24h64v24c0,4.418,3.582,8,8,8
			s8-3.582,8-8v-24h64v24c0,4.418,3.582,8,8,8s8-3.582,8-8v-24h64v24c0,4.418,3.582,8,8,8s8-3.582,8-8v-24h64v24
			c0,4.418,3.582,8,8,8s8-3.582,8-8v-24h16c13.255,0,24,10.745,24,24V112.009z"/>
	</g>
</g>
<g>
	<g>
		<path d="M128.001,264.009c-4.418,0-8,3.582-8,8v72h-40c-4.418,0-8,3.582-8,8s3.582,8,8,8h48c4.418,0,8-3.582,8-8v-80
			C136.001,267.59,132.419,264.009,128.001,264.009z"/>
	</g>
</g>
<g>
</g>
<g>
</g>
<g>
</g>
<g>
</g>
<g>
</g>
<g>
</g>
<g>
</g>
<g>
</g>
<g>
</g>
<g>
</g>
<g>
</g>
<g>
</g>
<g>
</g>
<g>
</g>
<g>
</g>
</svg>
